<?xml version="1.0" encoding="utf-8" standalone="no"?>
<!DOCTYPE svg PUBLIC "-//W3C//DTD SVG 1.1//EN"
  "http://www.w3.org/Graphics/SVG/1.1/DTD/svg11.dtd">
<svg xmlns:xlink="http://www.w3.org/1999/xlink" width="907.2pt" height="513.36pt" viewBox="0 0 907.2 513.36" xmlns="http://www.w3.org/2000/svg" version="1.1">
 <metadata>
  <rdf:RDF xmlns:dc="http://purl.org/dc/elements/1.1/" xmlns:cc="http://creativecommons.org/ns#" xmlns:rdf="http://www.w3.org/1999/02/22-rdf-syntax-ns#">
   <cc:Work>
    <dc:type rdf:resource="http://purl.org/dc/dcmitype/StillImage"/>
    <dc:date>2025-12-22T11:35:32.873228</dc:date>
    <dc:format>image/svg+xml</dc:format>
    <dc:creator>
     <cc:Agent>
      <dc:title>Matplotlib v3.10.8, https://matplotlib.org/</dc:title>
     </cc:Agent>
    </dc:creator>
   </cc:Work>
  </rdf:RDF>
 </metadata>
 <defs>
  <style type="text/css">*{stroke-linejoin: round; stroke-linecap: butt}</style>
 </defs>
 <g id="figure_1">
  <g id="patch_1">
   <path d="M 0 513.36 
L 907.2 513.36 
L 907.2 -0 
L 0 -0 
z
" style="fill: #ffffff"/>
  </g>
  <g id="axes_1">
   <g id="patch_2">
    <path d="M 814.140691 269.231586 
Q 453.599663 175.679912 94.140831 82.409042 
" clip-path="url(#p12d45ceeb6)" style="fill: none; stroke: #000000; stroke-linecap: round"/>
    <path d="M 97.510298 85.349568 
L 94.140831 82.409042 
L 98.514932 81.477785 
z
" clip-path="url(#p12d45ceeb6)" style="stroke: #000000; stroke-linecap: round"/>
   </g>
   <g id="patch_3">
    <path d="M 84.67438 336.384712 
Q 84.67438 300.864451 84.67438 266.462224 
" clip-path="url(#p12d45ceeb6)" style="fill: none; stroke: #000000; stroke-linecap: round"/>
    <path d="M 82.67438 270.462224 
L 84.67438 266.462224 
L 86.67438 270.462224 
z
" clip-path="url(#p12d45ceeb6)" style="stroke: #000000; stroke-linecap: round"/>
   </g>
   <g id="patch_4">
    <path d="M 84.67438 336.382914 
Q 84.67438 197.770086 84.67438 60.275292 
" clip-path="url(#p12d45ceeb6)" style="fill: none; stroke: #000000; stroke-linecap: round"/>
    <path d="M 82.67438 64.275292 
L 84.67438 60.275292 
L 86.67438 64.275292 
z
" clip-path="url(#p12d45ceeb6)" style="stroke: #000000; stroke-linecap: round"/>
   </g>
   <g id="patch_5">
    <path d="M 84.67438 336.382465 
Q 84.67438 241.951646 84.67438 148.638861 
" clip-path="url(#p12d45ceeb6)" style="fill: none; stroke: #000000; stroke-linecap: round"/>
    <path d="M 82.67438 152.638861 
L 84.67438 148.638861 
L 86.67438 152.638861 
z
" clip-path="url(#p12d45ceeb6)" style="stroke: #000000; stroke-linecap: round"/>
   </g>
   <g id="patch_6">
    <path d="M 93.098715 343.025872 
Q 269.13711 300.861837 444.088223 258.958224 
" clip-path="url(#p12d45ceeb6)" style="fill: none; stroke: #000000; stroke-linecap: round"/>
    <path d="M 439.732392 257.944948 
L 444.088223 258.958224 
L 440.664104 261.834924 
z
" clip-path="url(#p12d45ceeb6)" style="stroke: #000000; stroke-linecap: round"/>
   </g>
   <g id="patch_7">
    <path d="M 93.22819 343.677786 
Q 269.137374 315.589062 443.942511 287.676628 
" clip-path="url(#p12d45ceeb6)" style="fill: none; stroke: #000000; stroke-linecap: round"/>
    <path d="M 439.67719 286.332367 
L 443.942511 287.676628 
L 440.307909 290.282329 
z
" clip-path="url(#p12d45ceeb6)" style="stroke: #000000; stroke-linecap: round"/>
   </g>
   <g id="patch_8">
    <path d="M 92.924205 342.409015 
Q 269.135871 286.134967 444.282496 230.201045 
" clip-path="url(#p12d45ceeb6)" style="fill: none; stroke: #000000; stroke-linecap: round"/>
    <path d="M 439.86365 229.512712 
L 444.282496 230.201045 
L 441.080523 233.323122 
z
" clip-path="url(#p12d45ceeb6)" style="stroke: #000000; stroke-linecap: round"/>
   </g>
   <g id="patch_9">
    <path d="M 84.67438 248.018828 
Q 84.67438 153.58801 84.67438 60.275225 
" clip-path="url(#p12d45ceeb6)" style="fill: none; stroke: #000000; stroke-linecap: round"/>
    <path d="M 82.67438 64.275225 
L 84.67438 60.275225 
L 86.67438 64.275225 
z
" clip-path="url(#p12d45ceeb6)" style="stroke: #000000; stroke-linecap: round"/>
   </g>
   <g id="patch_10">
    <path d="M 93.307001 257.369217 
Q 269.136483 271.407216 443.851477 285.356236 
" clip-path="url(#p12d45ceeb6)" style="fill: none; stroke: #000000; stroke-linecap: round"/>
    <path d="M 440.023336 283.044238 
L 443.851477 285.356236 
L 439.704994 287.03155 
z
" clip-path="url(#p12d45ceeb6)" style="stroke: #000000; stroke-linecap: round"/>
   </g>
   <g id="patch_11">
    <path d="M 93.307001 255.990783 
Q 269.136483 241.952784 443.851477 228.003764 
" clip-path="url(#p12d45ceeb6)" style="fill: none; stroke: #000000; stroke-linecap: round"/>
    <path d="M 439.704994 226.32845 
L 443.851477 228.003764 
L 440.023336 230.315762 
z
" clip-path="url(#p12d45ceeb6)" style="stroke: #000000; stroke-linecap: round"/>
   </g>
   <g id="patch_12">
    <path d="M 84.67438 130.202894 
Q 84.67438 94.682633 84.67438 60.280406 
" clip-path="url(#p12d45ceeb6)" style="fill: none; stroke: #000000; stroke-linecap: round"/>
    <path d="M 82.67438 64.280406 
L 84.67438 60.280406 
L 86.67438 64.280406 
z
" clip-path="url(#p12d45ceeb6)" style="stroke: #000000; stroke-linecap: round"/>
   </g>
   <g id="patch_13">
    <path d="M 84.67438 147.52254 
Q 84.67438 286.135369 84.67438 423.630163 
" clip-path="url(#p12d45ceeb6)" style="fill: none; stroke: #000000; stroke-linecap: round"/>
    <path d="M 86.67438 419.630163 
L 84.67438 423.630163 
L 82.67438 419.630163 
z
" clip-path="url(#p12d45ceeb6)" style="stroke: #000000; stroke-linecap: round"/>
   </g>
   <g id="patch_14">
    <path d="M 84.67438 130.200197 
Q 84.67438 109.405338 84.67438 89.728513 
" clip-path="url(#p12d45ceeb6)" style="fill: none; stroke: #000000; stroke-linecap: round"/>
    <path d="M 82.67438 93.728513 
L 84.67438 89.728513 
L 86.67438 93.728513 
z
" clip-path="url(#p12d45ceeb6)" style="stroke: #000000; stroke-linecap: round"/>
   </g>
   <g id="patch_15">
    <path d="M 92.924205 141.49644 
Q 269.135871 197.770488 444.282496 253.70441 
" clip-path="url(#p12d45ceeb6)" style="fill: none; stroke: #000000; stroke-linecap: round"/>
    <path d="M 441.080523 250.582333 
L 444.282496 253.70441 
L 439.86365 254.392742 
z
" clip-path="url(#p12d45ceeb6)" style="stroke: #000000; stroke-linecap: round"/>
   </g>
   <g id="patch_16">
    <path d="M 92.715918 142.071948 
Q 269.136725 212.497996 444.519175 282.509539 
" clip-path="url(#p12d45ceeb6)" style="fill: none; stroke: #000000; stroke-linecap: round"/>
    <path d="M 441.545726 279.169089 
L 444.519175 282.509539 
L 440.062746 282.884028 
z
" clip-path="url(#p12d45ceeb6)" style="stroke: #000000; stroke-linecap: round"/>
   </g>
   <g id="patch_17">
    <path d="M 84.67438 59.157106 
Q 84.67438 94.677367 84.67438 129.079594 
" clip-path="url(#p12d45ceeb6)" style="fill: none; stroke: #000000; stroke-linecap: round"/>
    <path d="M 86.67438 125.079594 
L 84.67438 129.079594 
L 82.67438 125.079594 
z
" clip-path="url(#p12d45ceeb6)" style="stroke: #000000; stroke-linecap: round"/>
   </g>
   <g id="patch_18">
    <path d="M 92.231794 54.721801 
Q 269.134643 153.587667 445.061532 251.908098 
" clip-path="url(#p12d45ceeb6)" style="fill: none; stroke: #000000; stroke-linecap: round"/>
    <path d="M 442.545534 248.210835 
L 445.061532 251.908098 
L 440.594122 251.702538 
z
" clip-path="url(#p12d45ceeb6)" style="stroke: #000000; stroke-linecap: round"/>
   </g>
   <g id="patch_19">
    <path d="M 91.972843 55.159781 
Q 269.137649 168.316657 445.360215 280.871715 
" clip-path="url(#p12d45ceeb6)" style="fill: none; stroke: #000000; stroke-linecap: round"/>
    <path d="M 443.06572 277.033058 
L 445.360215 280.871715 
L 440.912592 280.404117 
z
" clip-path="url(#p12d45ceeb6)" style="stroke: #000000; stroke-linecap: round"/>
   </g>
   <g id="patch_20">
    <path d="M 84.67438 424.745652 
Q 84.67438 315.589212 84.67438 207.550806 
" clip-path="url(#p12d45ceeb6)" style="fill: none; stroke: #000000; stroke-linecap: round"/>
    <path d="M 82.67438 211.550806 
L 84.67438 207.550806 
L 86.67438 211.550806 
z
" clip-path="url(#p12d45ceeb6)" style="stroke: #000000; stroke-linecap: round"/>
   </g>
   <g id="patch_21">
    <path d="M 84.67438 424.747 
Q 84.67438 300.861218 84.67438 178.09347 
" clip-path="url(#p12d45ceeb6)" style="fill: none; stroke: #000000; stroke-linecap: round"/>
    <path d="M 82.67438 182.09347 
L 84.67438 178.09347 
L 86.67438 182.09347 
z
" clip-path="url(#p12d45ceeb6)" style="stroke: #000000; stroke-linecap: round"/>
   </g>
   <g id="patch_22">
    <path d="M 84.67438 424.745652 
Q 84.67438 374.496258 84.67438 325.364898 
" clip-path="url(#p12d45ceeb6)" style="fill: none; stroke: #000000; stroke-linecap: round"/>
    <path d="M 82.67438 329.364898 
L 84.67438 325.364898 
L 86.67438 329.364898 
z
" clip-path="url(#p12d45ceeb6)" style="stroke: #000000; stroke-linecap: round"/>
   </g>
   <g id="patch_23">
    <path d="M 84.67438 424.746101 
Q 84.67438 330.315282 84.67438 237.002498 
" clip-path="url(#p12d45ceeb6)" style="fill: none; stroke: #000000; stroke-linecap: round"/>
    <path d="M 82.67438 241.002498 
L 84.67438 237.002498 
L 86.67438 241.002498 
z
" clip-path="url(#p12d45ceeb6)" style="stroke: #000000; stroke-linecap: round"/>
   </g>
   <g id="patch_24">
    <path d="M 84.67438 424.745652 
Q 84.67438 403.950793 84.67438 384.273968 
" clip-path="url(#p12d45ceeb6)" style="fill: none; stroke: #000000; stroke-linecap: round"/>
    <path d="M 82.67438 388.273968 
L 84.67438 384.273968 
L 86.67438 388.273968 
z
" clip-path="url(#p12d45ceeb6)" style="stroke: #000000; stroke-linecap: round"/>
   </g>
   <g id="patch_25">
    <path d="M 84.67438 424.746551 
Q 84.67438 359.770058 84.67438 295.9116 
" clip-path="url(#p12d45ceeb6)" style="fill: none; stroke: #000000; stroke-linecap: round"/>
    <path d="M 82.67438 299.9116 
L 84.67438 295.9116 
L 86.67438 299.9116 
z
" clip-path="url(#p12d45ceeb6)" style="stroke: #000000; stroke-linecap: round"/>
   </g>
   <g id="patch_26">
    <path d="M 84.67438 424.745652 
Q 84.67438 418.678087 84.67438 413.728557 
" clip-path="url(#p12d45ceeb6)" style="fill: none; stroke: #000000; stroke-linecap: round"/>
    <path d="M 82.67438 417.728557 
L 84.67438 413.728557 
L 86.67438 417.728557 
z
" clip-path="url(#p12d45ceeb6)" style="stroke: #000000; stroke-linecap: round"/>
   </g>
   <g id="patch_27">
    <path d="M 84.67438 424.750595 
Q 84.67438 271.40711 84.67438 119.181658 
" clip-path="url(#p12d45ceeb6)" style="fill: none; stroke: #000000; stroke-linecap: round"/>
    <path d="M 82.67438 123.181658 
L 84.67438 119.181658 
L 86.67438 123.181658 
z
" clip-path="url(#p12d45ceeb6)" style="stroke: #000000; stroke-linecap: round"/>
   </g>
   <g id="patch_28">
    <path d="M 84.67438 454.205141 
Q 84.67438 300.861655 84.67438 148.636203 
" clip-path="url(#p12d45ceeb6)" style="fill: none; stroke: #000000; stroke-linecap: round"/>
    <path d="M 82.67438 152.636203 
L 84.67438 148.636203 
L 86.67438 152.636203 
z
" clip-path="url(#p12d45ceeb6)" style="stroke: #000000; stroke-linecap: round"/>
   </g>
   <g id="patch_29">
    <path d="M 84.67438 454.200647 
Q 84.67438 256.678362 84.67438 60.274111 
" clip-path="url(#p12d45ceeb6)" style="fill: none; stroke: #000000; stroke-linecap: round"/>
    <path d="M 82.67438 64.274111 
L 84.67438 60.274111 
L 86.67438 64.274111 
z
" clip-path="url(#p12d45ceeb6)" style="stroke: #000000; stroke-linecap: round"/>
   </g>
   <g id="patch_30">
    <path d="M 462.255138 256.334492 
Q 638.062636 249.316371 812.75299 242.342844 
" clip-path="url(#p12d45ceeb6)" style="fill: none; stroke: #000000; stroke-linecap: round"/>
    <path d="M 808.676399 240.503986 
L 812.75299 242.342844 
L 808.835949 244.500803 
z
" clip-path="url(#p12d45ceeb6)" style="stroke: #000000; stroke-linecap: round"/>
   </g>
   <g id="patch_31">
    <path d="M 84.67438 189.109288 
Q 84.67438 138.859894 84.67438 89.728534 
" clip-path="url(#p12d45ceeb6)" style="fill: none; stroke: #000000; stroke-linecap: round"/>
    <path d="M 82.67438 93.728534 
L 84.67438 89.728534 
L 86.67438 93.728534 
z
" clip-path="url(#p12d45ceeb6)" style="stroke: #000000; stroke-linecap: round"/>
   </g>
   <g id="patch_32">
    <path d="M 93.098715 170.334128 
Q 269.13711 212.498163 444.088223 254.401776 
" clip-path="url(#p12d45ceeb6)" style="fill: none; stroke: #000000; stroke-linecap: round"/>
    <path d="M 440.664104 251.525076 
L 444.088223 254.401776 
L 439.732392 255.415052 
z
" clip-path="url(#p12d45ceeb6)" style="stroke: #000000; stroke-linecap: round"/>
   </g>
   <g id="patch_33">
    <path d="M 84.67438 306.928369 
Q 84.67438 241.951876 84.67438 178.093418 
" clip-path="url(#p12d45ceeb6)" style="fill: none; stroke: #000000; stroke-linecap: round"/>
    <path d="M 82.67438 182.093418 
L 84.67438 178.093418 
L 86.67438 182.093418 
z
" clip-path="url(#p12d45ceeb6)" style="stroke: #000000; stroke-linecap: round"/>
   </g>
   <g id="patch_34">
    <path d="M 84.67438 218.564732 
Q 84.67438 153.58824 84.67438 89.729781 
" clip-path="url(#p12d45ceeb6)" style="fill: none; stroke: #000000; stroke-linecap: round"/>
    <path d="M 82.67438 93.729781 
L 84.67438 89.729781 
L 86.67438 93.729781 
z
" clip-path="url(#p12d45ceeb6)" style="stroke: #000000; stroke-linecap: round"/>
   </g>
   <g id="patch_35">
    <path d="M 84.67438 218.563833 
Q 84.67438 197.768974 84.67438 178.09215 
" clip-path="url(#p12d45ceeb6)" style="fill: none; stroke: #000000; stroke-linecap: round"/>
    <path d="M 82.67438 182.09215 
L 84.67438 178.09215 
L 86.67438 182.09215 
z
" clip-path="url(#p12d45ceeb6)" style="stroke: #000000; stroke-linecap: round"/>
   </g>
   <g id="patch_36">
    <path d="M 84.67438 365.83746 
Q 84.67438 227.224631 84.67438 89.729837 
" clip-path="url(#p12d45ceeb6)" style="fill: none; stroke: #000000; stroke-linecap: round"/>
    <path d="M 82.67438 93.729837 
L 84.67438 89.729837 
L 86.67438 93.729837 
z
" clip-path="url(#p12d45ceeb6)" style="stroke: #000000; stroke-linecap: round"/>
   </g>
   <g id="patch_37">
    <path d="M 84.67438 100.745652 
Q 84.67438 94.678087 84.67438 89.728557 
" clip-path="url(#p12d45ceeb6)" style="fill: none; stroke: #000000; stroke-linecap: round"/>
    <path d="M 82.67438 93.728557 
L 84.67438 89.728557 
L 86.67438 93.728557 
z
" clip-path="url(#p12d45ceeb6)" style="stroke: #000000; stroke-linecap: round"/>
   </g>
   <g id="PathCollection_1">
    <defs>
     <path id="maef0db9e13" d="M 0 17.320508 
C 4.593452 17.320508 8.999387 15.49551 12.247449 12.247449 
C 15.49551 8.999387 17.320508 4.593452 17.320508 0 
C 17.320508 -4.593452 15.49551 -8.999387 12.247449 -12.247449 
C 8.999387 -15.49551 4.593452 -17.320508 0 -17.320508 
C -4.593452 -17.320508 -8.999387 -15.49551 -12.247449 -12.247449 
C -15.49551 -8.999387 -17.320508 -4.593452 -17.320508 0 
C -17.320508 4.593452 -15.49551 8.999387 -12.247449 12.247449 
C -8.999387 15.49551 -4.593452 17.320508 0 17.320508 
z
" style="stroke: #1f78b4"/>
    </defs>
    <g clip-path="url(#p12d45ceeb6)">
     <use xlink:href="#maef0db9e13" x="822.52562" y="271.407273" style="fill: #1f78b4; stroke: #1f78b4"/>
     <use xlink:href="#maef0db9e13" x="822.52562" y="241.952727" style="fill: #1f78b4; stroke: #1f78b4"/>
     <use xlink:href="#maef0db9e13" x="84.67438" y="345.043636" style="fill: #1f78b4; stroke: #1f78b4"/>
     <use xlink:href="#maef0db9e13" x="84.67438" y="256.68" style="fill: #1f78b4; stroke: #1f78b4"/>
     <use xlink:href="#maef0db9e13" x="84.67438" y="138.861818" style="fill: #1f78b4; stroke: #1f78b4"/>
     <use xlink:href="#maef0db9e13" x="84.67438" y="50.498182" style="fill: #1f78b4; stroke: #1f78b4"/>
     <use xlink:href="#maef0db9e13" x="84.67438" y="433.407273" style="fill: #1f78b4; stroke: #1f78b4"/>
     <use xlink:href="#maef0db9e13" x="84.67438" y="462.861818" style="fill: #1f78b4; stroke: #1f78b4"/>
     <use xlink:href="#maef0db9e13" x="84.67438" y="79.952727" style="fill: #1f78b4; stroke: #1f78b4"/>
     <use xlink:href="#maef0db9e13" x="453.6" y="256.68" style="fill: #1f78b4; stroke: #1f78b4"/>
     <use xlink:href="#maef0db9e13" x="453.6" y="286.134545" style="fill: #1f78b4; stroke: #1f78b4"/>
     <use xlink:href="#maef0db9e13" x="453.6" y="227.225455" style="fill: #1f78b4; stroke: #1f78b4"/>
     <use xlink:href="#maef0db9e13" x="84.67438" y="197.770909" style="fill: #1f78b4; stroke: #1f78b4"/>
     <use xlink:href="#maef0db9e13" x="84.67438" y="168.316364" style="fill: #1f78b4; stroke: #1f78b4"/>
     <use xlink:href="#maef0db9e13" x="84.67438" y="315.589091" style="fill: #1f78b4; stroke: #1f78b4"/>
     <use xlink:href="#maef0db9e13" x="84.67438" y="227.225455" style="fill: #1f78b4; stroke: #1f78b4"/>
     <use xlink:href="#maef0db9e13" x="84.67438" y="374.498182" style="fill: #1f78b4; stroke: #1f78b4"/>
     <use xlink:href="#maef0db9e13" x="84.67438" y="286.134545" style="fill: #1f78b4; stroke: #1f78b4"/>
     <use xlink:href="#maef0db9e13" x="84.67438" y="403.952727" style="fill: #1f78b4; stroke: #1f78b4"/>
     <use xlink:href="#maef0db9e13" x="84.67438" y="109.407273" style="fill: #1f78b4; stroke: #1f78b4"/>
    </g>
   </g>
   <g id="text_1">
    <g clip-path="url(#p12d45ceeb6)">
     <!-- LLM 提供商适配层 -->
     <g transform="translate(787.149995 274.718523) scale(0.12 -0.12)">
      <defs>
       <path id="DejaVuSans-4c" d="M 628 4666 
L 1259 4666 
L 1259 531 
L 3531 531 
L 3531 0 
L 628 0 
L 628 4666 
z
" transform="scale(0.015625)"/>
       <path id="DejaVuSans-4d" d="M 628 4666 
L 1569 4666 
L 2759 1491 
L 3956 4666 
L 4897 4666 
L 4897 0 
L 4281 0 
L 4281 4097 
L 3078 897 
L 2444 897 
L 1241 4097 
L 1241 0 
L 628 0 
L 628 4666 
z
" transform="scale(0.015625)"/>
       <path id="DejaVuSans-20" transform="scale(0.015625)"/>
       <path id="DejaVuSans-63d0" d="M 319 -1131 
L 319 4513 
L 3519 4513 
L 3519 -1131 
L 319 -1131 
z
M 678 -775 
L 3163 -775 
L 3163 4153 
L 678 4153 
L 678 -775 
z
" transform="scale(0.015625)"/>
       <path id="DejaVuSans-4f9b" d="M 319 -1131 
L 319 4513 
L 3519 4513 
L 3519 -1131 
L 319 -1131 
z
M 678 -775 
L 3163 -775 
L 3163 4153 
L 678 4153 
L 678 -775 
z
" transform="scale(0.015625)"/>
       <path id="DejaVuSans-5546" d="M 319 -1131 
L 319 4513 
L 3519 4513 
L 3519 -1131 
L 319 -1131 
z
M 678 -775 
L 3163 -775 
L 3163 4153 
L 678 4153 
L 678 -775 
z
" transform="scale(0.015625)"/>
       <path id="DejaVuSans-9002" d="M 319 -1131 
L 319 4513 
L 3519 4513 
L 3519 -1131 
L 319 -1131 
z
M 678 -775 
L 3163 -775 
L 3163 4153 
L 678 4153 
L 678 -775 
z
" transform="scale(0.015625)"/>
       <path id="DejaVuSans-914d" d="M 319 -1131 
L 319 4513 
L 3519 4513 
L 3519 -1131 
L 319 -1131 
z
M 678 -775 
L 3163 -775 
L 3163 4153 
L 678 4153 
L 678 -775 
z
" transform="scale(0.015625)"/>
       <path id="DejaVuSans-5c42" d="M 319 -1131 
L 319 4513 
L 3519 4513 
L 3519 -1131 
L 319 -1131 
z
M 678 -775 
L 3163 -775 
L 3163 4153 
L 678 4153 
L 678 -775 
z
" transform="scale(0.015625)"/>
      </defs>
      <use xlink:href="#DejaVuSans-4c"/>
      <use xlink:href="#DejaVuSans-4c" transform="translate(55.712891 0)"/>
      <use xlink:href="#DejaVuSans-4d" transform="translate(111.425781 0)"/>
      <use xlink:href="#DejaVuSans-20" transform="translate(197.705078 0)"/>
      <use xlink:href="#DejaVuSans-63d0" transform="translate(229.492188 0)"/>
      <use xlink:href="#DejaVuSans-4f9b" transform="translate(289.501953 0)"/>
      <use xlink:href="#DejaVuSans-5546" transform="translate(349.511719 0)"/>
      <use xlink:href="#DejaVuSans-9002" transform="translate(409.521484 0)"/>
      <use xlink:href="#DejaVuSans-914d" transform="translate(469.53125 0)"/>
      <use xlink:href="#DejaVuSans-5c42" transform="translate(529.541016 0)"/>
     </g>
    </g>
   </g>
   <g id="text_2">
    <g clip-path="url(#p12d45ceeb6)">
     <!-- Sentence Embedder -->
     <g transform="translate(761.564682 245.263977) scale(0.12 -0.12)">
      <defs>
       <path id="DejaVuSans-53" d="M 3425 4513 
L 3425 3897 
Q 3066 4069 2747 4153 
Q 2428 4238 2131 4238 
Q 1616 4238 1336 4038 
Q 1056 3838 1056 3469 
Q 1056 3159 1242 3001 
Q 1428 2844 1947 2747 
L 2328 2669 
Q 3034 2534 3370 2195 
Q 3706 1856 3706 1288 
Q 3706 609 3251 259 
Q 2797 -91 1919 -91 
Q 1588 -91 1214 -16 
Q 841 59 441 206 
L 441 856 
Q 825 641 1194 531 
Q 1563 422 1919 422 
Q 2459 422 2753 634 
Q 3047 847 3047 1241 
Q 3047 1584 2836 1778 
Q 2625 1972 2144 2069 
L 1759 2144 
Q 1053 2284 737 2584 
Q 422 2884 422 3419 
Q 422 4038 858 4394 
Q 1294 4750 2059 4750 
Q 2388 4750 2728 4690 
Q 3069 4631 3425 4513 
z
" transform="scale(0.015625)"/>
       <path id="DejaVuSans-65" d="M 3597 1894 
L 3597 1613 
L 953 1613 
Q 991 1019 1311 708 
Q 1631 397 2203 397 
Q 2534 397 2845 478 
Q 3156 559 3463 722 
L 3463 178 
Q 3153 47 2828 -22 
Q 2503 -91 2169 -91 
Q 1331 -91 842 396 
Q 353 884 353 1716 
Q 353 2575 817 3079 
Q 1281 3584 2069 3584 
Q 2775 3584 3186 3129 
Q 3597 2675 3597 1894 
z
M 3022 2063 
Q 3016 2534 2758 2815 
Q 2500 3097 2075 3097 
Q 1594 3097 1305 2825 
Q 1016 2553 972 2059 
L 3022 2063 
z
" transform="scale(0.015625)"/>
       <path id="DejaVuSans-6e" d="M 3513 2113 
L 3513 0 
L 2938 0 
L 2938 2094 
Q 2938 2591 2744 2837 
Q 2550 3084 2163 3084 
Q 1697 3084 1428 2787 
Q 1159 2491 1159 1978 
L 1159 0 
L 581 0 
L 581 3500 
L 1159 3500 
L 1159 2956 
Q 1366 3272 1645 3428 
Q 1925 3584 2291 3584 
Q 2894 3584 3203 3211 
Q 3513 2838 3513 2113 
z
" transform="scale(0.015625)"/>
       <path id="DejaVuSans-74" d="M 1172 4494 
L 1172 3500 
L 2356 3500 
L 2356 3053 
L 1172 3053 
L 1172 1153 
Q 1172 725 1289 603 
Q 1406 481 1766 481 
L 2356 481 
L 2356 0 
L 1766 0 
Q 1100 0 847 248 
Q 594 497 594 1153 
L 594 3053 
L 172 3053 
L 172 3500 
L 594 3500 
L 594 4494 
L 1172 4494 
z
" transform="scale(0.015625)"/>
       <path id="DejaVuSans-63" d="M 3122 3366 
L 3122 2828 
Q 2878 2963 2633 3030 
Q 2388 3097 2138 3097 
Q 1578 3097 1268 2742 
Q 959 2388 959 1747 
Q 959 1106 1268 751 
Q 1578 397 2138 397 
Q 2388 397 2633 464 
Q 2878 531 3122 666 
L 3122 134 
Q 2881 22 2623 -34 
Q 2366 -91 2075 -91 
Q 1284 -91 818 406 
Q 353 903 353 1747 
Q 353 2603 823 3093 
Q 1294 3584 2113 3584 
Q 2378 3584 2631 3529 
Q 2884 3475 3122 3366 
z
" transform="scale(0.015625)"/>
       <path id="DejaVuSans-45" d="M 628 4666 
L 3578 4666 
L 3578 4134 
L 1259 4134 
L 1259 2753 
L 3481 2753 
L 3481 2222 
L 1259 2222 
L 1259 531 
L 3634 531 
L 3634 0 
L 628 0 
L 628 4666 
z
" transform="scale(0.015625)"/>
       <path id="DejaVuSans-6d" d="M 3328 2828 
Q 3544 3216 3844 3400 
Q 4144 3584 4550 3584 
Q 5097 3584 5394 3201 
Q 5691 2819 5691 2113 
L 5691 0 
L 5113 0 
L 5113 2094 
Q 5113 2597 4934 2840 
Q 4756 3084 4391 3084 
Q 3944 3084 3684 2787 
Q 3425 2491 3425 1978 
L 3425 0 
L 2847 0 
L 2847 2094 
Q 2847 2600 2669 2842 
Q 2491 3084 2119 3084 
Q 1678 3084 1418 2786 
Q 1159 2488 1159 1978 
L 1159 0 
L 581 0 
L 581 3500 
L 1159 3500 
L 1159 2956 
Q 1356 3278 1631 3431 
Q 1906 3584 2284 3584 
Q 2666 3584 2933 3390 
Q 3200 3197 3328 2828 
z
" transform="scale(0.015625)"/>
       <path id="DejaVuSans-62" d="M 3116 1747 
Q 3116 2381 2855 2742 
Q 2594 3103 2138 3103 
Q 1681 3103 1420 2742 
Q 1159 2381 1159 1747 
Q 1159 1113 1420 752 
Q 1681 391 2138 391 
Q 2594 391 2855 752 
Q 3116 1113 3116 1747 
z
M 1159 2969 
Q 1341 3281 1617 3432 
Q 1894 3584 2278 3584 
Q 2916 3584 3314 3078 
Q 3713 2572 3713 1747 
Q 3713 922 3314 415 
Q 2916 -91 2278 -91 
Q 1894 -91 1617 61 
Q 1341 213 1159 525 
L 1159 0 
L 581 0 
L 581 4863 
L 1159 4863 
L 1159 2969 
z
" transform="scale(0.015625)"/>
       <path id="DejaVuSans-64" d="M 2906 2969 
L 2906 4863 
L 3481 4863 
L 3481 0 
L 2906 0 
L 2906 525 
Q 2725 213 2448 61 
Q 2172 -91 1784 -91 
Q 1150 -91 751 415 
Q 353 922 353 1747 
Q 353 2572 751 3078 
Q 1150 3584 1784 3584 
Q 2172 3584 2448 3432 
Q 2725 3281 2906 2969 
z
M 947 1747 
Q 947 1113 1208 752 
Q 1469 391 1925 391 
Q 2381 391 2643 752 
Q 2906 1113 2906 1747 
Q 2906 2381 2643 2742 
Q 2381 3103 1925 3103 
Q 1469 3103 1208 2742 
Q 947 2381 947 1747 
z
" transform="scale(0.015625)"/>
       <path id="DejaVuSans-72" d="M 2631 2963 
Q 2534 3019 2420 3045 
Q 2306 3072 2169 3072 
Q 1681 3072 1420 2755 
Q 1159 2438 1159 1844 
L 1159 0 
L 581 0 
L 581 3500 
L 1159 3500 
L 1159 2956 
Q 1341 3275 1631 3429 
Q 1922 3584 2338 3584 
Q 2397 3584 2469 3576 
Q 2541 3569 2628 3553 
L 2631 2963 
z
" transform="scale(0.015625)"/>
      </defs>
      <use xlink:href="#DejaVuSans-53"/>
      <use xlink:href="#DejaVuSans-65" transform="translate(63.476562 0)"/>
      <use xlink:href="#DejaVuSans-6e" transform="translate(125 0)"/>
      <use xlink:href="#DejaVuSans-74" transform="translate(188.378906 0)"/>
      <use xlink:href="#DejaVuSans-65" transform="translate(227.587891 0)"/>
      <use xlink:href="#DejaVuSans-6e" transform="translate(289.111328 0)"/>
      <use xlink:href="#DejaVuSans-63" transform="translate(352.490234 0)"/>
      <use xlink:href="#DejaVuSans-65" transform="translate(407.470703 0)"/>
      <use xlink:href="#DejaVuSans-20" transform="translate(468.994141 0)"/>
      <use xlink:href="#DejaVuSans-45" transform="translate(500.78125 0)"/>
      <use xlink:href="#DejaVuSans-6d" transform="translate(563.964844 0)"/>
      <use xlink:href="#DejaVuSans-62" transform="translate(661.376953 0)"/>
      <use xlink:href="#DejaVuSans-65" transform="translate(724.853516 0)"/>
      <use xlink:href="#DejaVuSans-64" transform="translate(786.376953 0)"/>
      <use xlink:href="#DejaVuSans-64" transform="translate(849.853516 0)"/>
      <use xlink:href="#DejaVuSans-65" transform="translate(913.330078 0)"/>
      <use xlink:href="#DejaVuSans-72" transform="translate(974.853516 0)"/>
     </g>
    </g>
   </g>
   <g id="text_3">
    <g clip-path="url(#p12d45ceeb6)">
     <!-- Simulation -->
     <g transform="translate(52.715005 348.354886) scale(0.12 -0.12)">
      <defs>
       <path id="DejaVuSans-69" d="M 603 3500 
L 1178 3500 
L 1178 0 
L 603 0 
L 603 3500 
z
M 603 4863 
L 1178 4863 
L 1178 4134 
L 603 4134 
L 603 4863 
z
" transform="scale(0.015625)"/>
       <path id="DejaVuSans-75" d="M 544 1381 
L 544 3500 
L 1119 3500 
L 1119 1403 
Q 1119 906 1312 657 
Q 1506 409 1894 409 
Q 2359 409 2629 706 
Q 2900 1003 2900 1516 
L 2900 3500 
L 3475 3500 
L 3475 0 
L 2900 0 
L 2900 538 
Q 2691 219 2414 64 
Q 2138 -91 1772 -91 
Q 1169 -91 856 284 
Q 544 659 544 1381 
z
M 1991 3584 
L 1991 3584 
z
" transform="scale(0.015625)"/>
       <path id="DejaVuSans-6c" d="M 603 4863 
L 1178 4863 
L 1178 0 
L 603 0 
L 603 4863 
z
" transform="scale(0.015625)"/>
       <path id="DejaVuSans-61" d="M 2194 1759 
Q 1497 1759 1228 1600 
Q 959 1441 959 1056 
Q 959 750 1161 570 
Q 1363 391 1709 391 
Q 2188 391 2477 730 
Q 2766 1069 2766 1631 
L 2766 1759 
L 2194 1759 
z
M 3341 1997 
L 3341 0 
L 2766 0 
L 2766 531 
Q 2569 213 2275 61 
Q 1981 -91 1556 -91 
Q 1019 -91 701 211 
Q 384 513 384 1019 
Q 384 1609 779 1909 
Q 1175 2209 1959 2209 
L 2766 2209 
L 2766 2266 
Q 2766 2663 2505 2880 
Q 2244 3097 1772 3097 
Q 1472 3097 1187 3025 
Q 903 2953 641 2809 
L 641 3341 
Q 956 3463 1253 3523 
Q 1550 3584 1831 3584 
Q 2591 3584 2966 3190 
Q 3341 2797 3341 1997 
z
" transform="scale(0.015625)"/>
       <path id="DejaVuSans-6f" d="M 1959 3097 
Q 1497 3097 1228 2736 
Q 959 2375 959 1747 
Q 959 1119 1226 758 
Q 1494 397 1959 397 
Q 2419 397 2687 759 
Q 2956 1122 2956 1747 
Q 2956 2369 2687 2733 
Q 2419 3097 1959 3097 
z
M 1959 3584 
Q 2709 3584 3137 3096 
Q 3566 2609 3566 1747 
Q 3566 888 3137 398 
Q 2709 -91 1959 -91 
Q 1206 -91 779 398 
Q 353 888 353 1747 
Q 353 2609 779 3096 
Q 1206 3584 1959 3584 
z
" transform="scale(0.015625)"/>
      </defs>
      <use xlink:href="#DejaVuSans-53"/>
      <use xlink:href="#DejaVuSans-69" transform="translate(63.476562 0)"/>
      <use xlink:href="#DejaVuSans-6d" transform="translate(91.259766 0)"/>
      <use xlink:href="#DejaVuSans-75" transform="translate(188.671875 0)"/>
      <use xlink:href="#DejaVuSans-6c" transform="translate(252.050781 0)"/>
      <use xlink:href="#DejaVuSans-61" transform="translate(279.833984 0)"/>
      <use xlink:href="#DejaVuSans-74" transform="translate(341.113281 0)"/>
      <use xlink:href="#DejaVuSans-69" transform="translate(380.322266 0)"/>
      <use xlink:href="#DejaVuSans-6f" transform="translate(408.105469 0)"/>
      <use xlink:href="#DejaVuSans-6e" transform="translate(469.287109 0)"/>
     </g>
    </g>
   </g>
   <g id="text_4">
    <g clip-path="url(#p12d45ceeb6)">
     <!-- Engines -->
     <g transform="translate(60.984693 259.99125) scale(0.12 -0.12)">
      <defs>
       <path id="DejaVuSans-67" d="M 2906 1791 
Q 2906 2416 2648 2759 
Q 2391 3103 1925 3103 
Q 1463 3103 1205 2759 
Q 947 2416 947 1791 
Q 947 1169 1205 825 
Q 1463 481 1925 481 
Q 2391 481 2648 825 
Q 2906 1169 2906 1791 
z
M 3481 434 
Q 3481 -459 3084 -895 
Q 2688 -1331 1869 -1331 
Q 1566 -1331 1297 -1286 
Q 1028 -1241 775 -1147 
L 775 -588 
Q 1028 -725 1275 -790 
Q 1522 -856 1778 -856 
Q 2344 -856 2625 -561 
Q 2906 -266 2906 331 
L 2906 616 
Q 2728 306 2450 153 
Q 2172 0 1784 0 
Q 1141 0 747 490 
Q 353 981 353 1791 
Q 353 2603 747 3093 
Q 1141 3584 1784 3584 
Q 2172 3584 2450 3431 
Q 2728 3278 2906 2969 
L 2906 3500 
L 3481 3500 
L 3481 434 
z
" transform="scale(0.015625)"/>
       <path id="DejaVuSans-73" d="M 2834 3397 
L 2834 2853 
Q 2591 2978 2328 3040 
Q 2066 3103 1784 3103 
Q 1356 3103 1142 2972 
Q 928 2841 928 2578 
Q 928 2378 1081 2264 
Q 1234 2150 1697 2047 
L 1894 2003 
Q 2506 1872 2764 1633 
Q 3022 1394 3022 966 
Q 3022 478 2636 193 
Q 2250 -91 1575 -91 
Q 1294 -91 989 -36 
Q 684 19 347 128 
L 347 722 
Q 666 556 975 473 
Q 1284 391 1588 391 
Q 1994 391 2212 530 
Q 2431 669 2431 922 
Q 2431 1156 2273 1281 
Q 2116 1406 1581 1522 
L 1381 1569 
Q 847 1681 609 1914 
Q 372 2147 372 2553 
Q 372 3047 722 3315 
Q 1072 3584 1716 3584 
Q 2034 3584 2315 3537 
Q 2597 3491 2834 3397 
z
" transform="scale(0.015625)"/>
      </defs>
      <use xlink:href="#DejaVuSans-45"/>
      <use xlink:href="#DejaVuSans-6e" transform="translate(63.183594 0)"/>
      <use xlink:href="#DejaVuSans-67" transform="translate(126.5625 0)"/>
      <use xlink:href="#DejaVuSans-69" transform="translate(190.039062 0)"/>
      <use xlink:href="#DejaVuSans-6e" transform="translate(217.822266 0)"/>
      <use xlink:href="#DejaVuSans-65" transform="translate(281.201172 0)"/>
      <use xlink:href="#DejaVuSans-73" transform="translate(342.724609 0)"/>
     </g>
    </g>
   </g>
   <g id="text_5">
    <g clip-path="url(#p12d45ceeb6)">
     <!-- Entities -->
     <g transform="translate(62.225005 142.173068) scale(0.12 -0.12)">
      <use xlink:href="#DejaVuSans-45"/>
      <use xlink:href="#DejaVuSans-6e" transform="translate(63.183594 0)"/>
      <use xlink:href="#DejaVuSans-74" transform="translate(126.5625 0)"/>
      <use xlink:href="#DejaVuSans-69" transform="translate(165.771484 0)"/>
      <use xlink:href="#DejaVuSans-74" transform="translate(193.554688 0)"/>
      <use xlink:href="#DejaVuSans-69" transform="translate(232.763672 0)"/>
      <use xlink:href="#DejaVuSans-65" transform="translate(260.546875 0)"/>
      <use xlink:href="#DejaVuSans-73" transform="translate(322.070312 0)"/>
     </g>
    </g>
   </g>
   <g id="text_6">
    <g clip-path="url(#p12d45ceeb6)">
     <!-- Game Masters -->
     <g transform="translate(41.289693 53.809432) scale(0.12 -0.12)">
      <defs>
       <path id="DejaVuSans-47" d="M 3809 666 
L 3809 1919 
L 2778 1919 
L 2778 2438 
L 4434 2438 
L 4434 434 
Q 4069 175 3628 42 
Q 3188 -91 2688 -91 
Q 1594 -91 976 548 
Q 359 1188 359 2328 
Q 359 3472 976 4111 
Q 1594 4750 2688 4750 
Q 3144 4750 3555 4637 
Q 3966 4525 4313 4306 
L 4313 3634 
Q 3963 3931 3569 4081 
Q 3175 4231 2741 4231 
Q 1884 4231 1454 3753 
Q 1025 3275 1025 2328 
Q 1025 1384 1454 906 
Q 1884 428 2741 428 
Q 3075 428 3337 486 
Q 3600 544 3809 666 
z
" transform="scale(0.015625)"/>
      </defs>
      <use xlink:href="#DejaVuSans-47"/>
      <use xlink:href="#DejaVuSans-61" transform="translate(77.490234 0)"/>
      <use xlink:href="#DejaVuSans-6d" transform="translate(138.769531 0)"/>
      <use xlink:href="#DejaVuSans-65" transform="translate(236.181641 0)"/>
      <use xlink:href="#DejaVuSans-20" transform="translate(297.705078 0)"/>
      <use xlink:href="#DejaVuSans-4d" transform="translate(329.492188 0)"/>
      <use xlink:href="#DejaVuSans-61" transform="translate(415.771484 0)"/>
      <use xlink:href="#DejaVuSans-73" transform="translate(477.050781 0)"/>
      <use xlink:href="#DejaVuSans-74" transform="translate(529.150391 0)"/>
      <use xlink:href="#DejaVuSans-65" transform="translate(568.359375 0)"/>
      <use xlink:href="#DejaVuSans-72" transform="translate(629.882812 0)"/>
      <use xlink:href="#DejaVuSans-73" transform="translate(670.996094 0)"/>
     </g>
    </g>
   </g>
   <g id="text_7">
    <g clip-path="url(#p12d45ceeb6)">
     <!-- Agent Components -->
     <g transform="translate(27.047193 436.718523) scale(0.12 -0.12)">
      <defs>
       <path id="DejaVuSans-41" d="M 2188 4044 
L 1331 1722 
L 3047 1722 
L 2188 4044 
z
M 1831 4666 
L 2547 4666 
L 4325 0 
L 3669 0 
L 3244 1197 
L 1141 1197 
L 716 0 
L 50 0 
L 1831 4666 
z
" transform="scale(0.015625)"/>
       <path id="DejaVuSans-43" d="M 4122 4306 
L 4122 3641 
Q 3803 3938 3442 4084 
Q 3081 4231 2675 4231 
Q 1875 4231 1450 3742 
Q 1025 3253 1025 2328 
Q 1025 1406 1450 917 
Q 1875 428 2675 428 
Q 3081 428 3442 575 
Q 3803 722 4122 1019 
L 4122 359 
Q 3791 134 3420 21 
Q 3050 -91 2638 -91 
Q 1578 -91 968 557 
Q 359 1206 359 2328 
Q 359 3453 968 4101 
Q 1578 4750 2638 4750 
Q 3056 4750 3426 4639 
Q 3797 4528 4122 4306 
z
" transform="scale(0.015625)"/>
       <path id="DejaVuSans-70" d="M 1159 525 
L 1159 -1331 
L 581 -1331 
L 581 3500 
L 1159 3500 
L 1159 2969 
Q 1341 3281 1617 3432 
Q 1894 3584 2278 3584 
Q 2916 3584 3314 3078 
Q 3713 2572 3713 1747 
Q 3713 922 3314 415 
Q 2916 -91 2278 -91 
Q 1894 -91 1617 61 
Q 1341 213 1159 525 
z
M 3116 1747 
Q 3116 2381 2855 2742 
Q 2594 3103 2138 3103 
Q 1681 3103 1420 2742 
Q 1159 2381 1159 1747 
Q 1159 1113 1420 752 
Q 1681 391 2138 391 
Q 2594 391 2855 752 
Q 3116 1113 3116 1747 
z
" transform="scale(0.015625)"/>
      </defs>
      <use xlink:href="#DejaVuSans-41"/>
      <use xlink:href="#DejaVuSans-67" transform="translate(68.408203 0)"/>
      <use xlink:href="#DejaVuSans-65" transform="translate(131.884766 0)"/>
      <use xlink:href="#DejaVuSans-6e" transform="translate(193.408203 0)"/>
      <use xlink:href="#DejaVuSans-74" transform="translate(256.787109 0)"/>
      <use xlink:href="#DejaVuSans-20" transform="translate(295.996094 0)"/>
      <use xlink:href="#DejaVuSans-43" transform="translate(327.783203 0)"/>
      <use xlink:href="#DejaVuSans-6f" transform="translate(397.607422 0)"/>
      <use xlink:href="#DejaVuSans-6d" transform="translate(458.789062 0)"/>
      <use xlink:href="#DejaVuSans-70" transform="translate(556.201172 0)"/>
      <use xlink:href="#DejaVuSans-6f" transform="translate(619.677734 0)"/>
      <use xlink:href="#DejaVuSans-6e" transform="translate(680.859375 0)"/>
      <use xlink:href="#DejaVuSans-65" transform="translate(744.238281 0)"/>
      <use xlink:href="#DejaVuSans-6e" transform="translate(805.761719 0)"/>
      <use xlink:href="#DejaVuSans-74" transform="translate(869.140625 0)"/>
      <use xlink:href="#DejaVuSans-73" transform="translate(908.349609 0)"/>
     </g>
    </g>
   </g>
   <g id="text_8">
    <g clip-path="url(#p12d45ceeb6)">
     <!-- Prefabs -->
     <g transform="translate(62.41438 466.173068) scale(0.12 -0.12)">
      <defs>
       <path id="DejaVuSans-50" d="M 1259 4147 
L 1259 2394 
L 2053 2394 
Q 2494 2394 2734 2622 
Q 2975 2850 2975 3272 
Q 2975 3691 2734 3919 
Q 2494 4147 2053 4147 
L 1259 4147 
z
M 628 4666 
L 2053 4666 
Q 2838 4666 3239 4311 
Q 3641 3956 3641 3272 
Q 3641 2581 3239 2228 
Q 2838 1875 2053 1875 
L 1259 1875 
L 1259 0 
L 628 0 
L 628 4666 
z
" transform="scale(0.015625)"/>
       <path id="DejaVuSans-66" d="M 2375 4863 
L 2375 4384 
L 1825 4384 
Q 1516 4384 1395 4259 
Q 1275 4134 1275 3809 
L 1275 3500 
L 2222 3500 
L 2222 3053 
L 1275 3053 
L 1275 0 
L 697 0 
L 697 3053 
L 147 3053 
L 147 3500 
L 697 3500 
L 697 3744 
Q 697 4328 969 4595 
Q 1241 4863 1831 4863 
L 2375 4863 
z
" transform="scale(0.015625)"/>
      </defs>
      <use xlink:href="#DejaVuSans-50"/>
      <use xlink:href="#DejaVuSans-72" transform="translate(58.552734 0)"/>
      <use xlink:href="#DejaVuSans-65" transform="translate(97.416016 0)"/>
      <use xlink:href="#DejaVuSans-66" transform="translate(158.939453 0)"/>
      <use xlink:href="#DejaVuSans-61" transform="translate(194.144531 0)"/>
      <use xlink:href="#DejaVuSans-62" transform="translate(255.423828 0)"/>
      <use xlink:href="#DejaVuSans-73" transform="translate(318.900391 0)"/>
     </g>
    </g>
   </g>
   <g id="text_9">
    <g clip-path="url(#p12d45ceeb6)">
     <!-- LanguageModel 基类 -->
     <g transform="translate(27.937818 83.263977) scale(0.12 -0.12)">
      <defs>
       <path id="DejaVuSans-57fa" d="M 319 -1131 
L 319 4513 
L 3519 4513 
L 3519 -1131 
L 319 -1131 
z
M 678 -775 
L 3163 -775 
L 3163 4153 
L 678 4153 
L 678 -775 
z
" transform="scale(0.015625)"/>
       <path id="DejaVuSans-7c7b" d="M 319 -1131 
L 319 4513 
L 3519 4513 
L 3519 -1131 
L 319 -1131 
z
M 678 -775 
L 3163 -775 
L 3163 4153 
L 678 4153 
L 678 -775 
z
" transform="scale(0.015625)"/>
      </defs>
      <use xlink:href="#DejaVuSans-4c"/>
      <use xlink:href="#DejaVuSans-61" transform="translate(55.712891 0)"/>
      <use xlink:href="#DejaVuSans-6e" transform="translate(116.992188 0)"/>
      <use xlink:href="#DejaVuSans-67" transform="translate(180.371094 0)"/>
      <use xlink:href="#DejaVuSans-75" transform="translate(243.847656 0)"/>
      <use xlink:href="#DejaVuSans-61" transform="translate(307.226562 0)"/>
      <use xlink:href="#DejaVuSans-67" transform="translate(368.505859 0)"/>
      <use xlink:href="#DejaVuSans-65" transform="translate(431.982422 0)"/>
      <use xlink:href="#DejaVuSans-4d" transform="translate(493.505859 0)"/>
      <use xlink:href="#DejaVuSans-6f" transform="translate(579.785156 0)"/>
      <use xlink:href="#DejaVuSans-64" transform="translate(640.966797 0)"/>
      <use xlink:href="#DejaVuSans-65" transform="translate(704.443359 0)"/>
      <use xlink:href="#DejaVuSans-6c" transform="translate(765.966797 0)"/>
      <use xlink:href="#DejaVuSans-20" transform="translate(793.75 0)"/>
      <use xlink:href="#DejaVuSans-57fa" transform="translate(825.537109 0)"/>
      <use xlink:href="#DejaVuSans-7c7b" transform="translate(885.546875 0)"/>
     </g>
    </g>
   </g>
   <g id="text_10">
    <g clip-path="url(#p12d45ceeb6)">
     <!-- AssociativeMemoryBank -->
     <g transform="translate(380.195625 259.99125) scale(0.12 -0.12)">
      <defs>
       <path id="DejaVuSans-76" d="M 191 3500 
L 800 3500 
L 1894 563 
L 2988 3500 
L 3597 3500 
L 2284 0 
L 1503 0 
L 191 3500 
z
" transform="scale(0.015625)"/>
       <path id="DejaVuSans-79" d="M 2059 -325 
Q 1816 -950 1584 -1140 
Q 1353 -1331 966 -1331 
L 506 -1331 
L 506 -850 
L 844 -850 
Q 1081 -850 1212 -737 
Q 1344 -625 1503 -206 
L 1606 56 
L 191 3500 
L 800 3500 
L 1894 763 
L 2988 3500 
L 3597 3500 
L 2059 -325 
z
" transform="scale(0.015625)"/>
       <path id="DejaVuSans-42" d="M 1259 2228 
L 1259 519 
L 2272 519 
Q 2781 519 3026 730 
Q 3272 941 3272 1375 
Q 3272 1813 3026 2020 
Q 2781 2228 2272 2228 
L 1259 2228 
z
M 1259 4147 
L 1259 2741 
L 2194 2741 
Q 2656 2741 2882 2914 
Q 3109 3088 3109 3444 
Q 3109 3797 2882 3972 
Q 2656 4147 2194 4147 
L 1259 4147 
z
M 628 4666 
L 2241 4666 
Q 2963 4666 3353 4366 
Q 3744 4066 3744 3513 
Q 3744 3084 3544 2831 
Q 3344 2578 2956 2516 
Q 3422 2416 3680 2098 
Q 3938 1781 3938 1306 
Q 3938 681 3513 340 
Q 3088 0 2303 0 
L 628 0 
L 628 4666 
z
" transform="scale(0.015625)"/>
       <path id="DejaVuSans-6b" d="M 581 4863 
L 1159 4863 
L 1159 1991 
L 2875 3500 
L 3609 3500 
L 1753 1863 
L 3688 0 
L 2938 0 
L 1159 1709 
L 1159 0 
L 581 0 
L 581 4863 
z
" transform="scale(0.015625)"/>
      </defs>
      <use xlink:href="#DejaVuSans-41"/>
      <use xlink:href="#DejaVuSans-73" transform="translate(68.408203 0)"/>
      <use xlink:href="#DejaVuSans-73" transform="translate(120.507812 0)"/>
      <use xlink:href="#DejaVuSans-6f" transform="translate(172.607422 0)"/>
      <use xlink:href="#DejaVuSans-63" transform="translate(233.789062 0)"/>
      <use xlink:href="#DejaVuSans-69" transform="translate(288.769531 0)"/>
      <use xlink:href="#DejaVuSans-61" transform="translate(316.552734 0)"/>
      <use xlink:href="#DejaVuSans-74" transform="translate(377.832031 0)"/>
      <use xlink:href="#DejaVuSans-69" transform="translate(417.041016 0)"/>
      <use xlink:href="#DejaVuSans-76" transform="translate(444.824219 0)"/>
      <use xlink:href="#DejaVuSans-65" transform="translate(504.003906 0)"/>
      <use xlink:href="#DejaVuSans-4d" transform="translate(565.527344 0)"/>
      <use xlink:href="#DejaVuSans-65" transform="translate(651.806641 0)"/>
      <use xlink:href="#DejaVuSans-6d" transform="translate(713.330078 0)"/>
      <use xlink:href="#DejaVuSans-6f" transform="translate(810.742188 0)"/>
      <use xlink:href="#DejaVuSans-72" transform="translate(871.923828 0)"/>
      <use xlink:href="#DejaVuSans-79" transform="translate(913.037109 0)"/>
      <use xlink:href="#DejaVuSans-42" transform="translate(972.216797 0)"/>
      <use xlink:href="#DejaVuSans-61" transform="translate(1040.820312 0)"/>
      <use xlink:href="#DejaVuSans-6e" transform="translate(1102.099609 0)"/>
      <use xlink:href="#DejaVuSans-6b" transform="translate(1165.478516 0)"/>
     </g>
    </g>
   </g>
   <g id="text_11">
    <g clip-path="url(#p12d45ceeb6)">
     <!-- Typing -->
     <g transform="translate(434.234063 289.445795) scale(0.12 -0.12)">
      <defs>
       <path id="DejaVuSans-54" d="M -19 4666 
L 3928 4666 
L 3928 4134 
L 2272 4134 
L 2272 0 
L 1638 0 
L 1638 4134 
L -19 4134 
L -19 4666 
z
" transform="scale(0.015625)"/>
      </defs>
      <use xlink:href="#DejaVuSans-54"/>
      <use xlink:href="#DejaVuSans-79" transform="translate(45.458984 0)"/>
      <use xlink:href="#DejaVuSans-70" transform="translate(104.638672 0)"/>
      <use xlink:href="#DejaVuSans-69" transform="translate(168.115234 0)"/>
      <use xlink:href="#DejaVuSans-6e" transform="translate(195.898438 0)"/>
      <use xlink:href="#DejaVuSans-67" transform="translate(259.277344 0)"/>
     </g>
    </g>
   </g>
   <g id="text_12">
    <g clip-path="url(#p12d45ceeb6)">
     <!-- Utils -->
     <g transform="translate(440.397188 230.536705) scale(0.12 -0.12)">
      <defs>
       <path id="DejaVuSans-55" d="M 556 4666 
L 1191 4666 
L 1191 1831 
Q 1191 1081 1462 751 
Q 1734 422 2344 422 
Q 2950 422 3222 751 
Q 3494 1081 3494 1831 
L 3494 4666 
L 4128 4666 
L 4128 1753 
Q 4128 841 3676 375 
Q 3225 -91 2344 -91 
Q 1459 -91 1007 375 
Q 556 841 556 1753 
L 556 4666 
z
" transform="scale(0.015625)"/>
      </defs>
      <use xlink:href="#DejaVuSans-55"/>
      <use xlink:href="#DejaVuSans-74" transform="translate(73.193359 0)"/>
      <use xlink:href="#DejaVuSans-69" transform="translate(112.402344 0)"/>
      <use xlink:href="#DejaVuSans-6c" transform="translate(140.185547 0)"/>
      <use xlink:href="#DejaVuSans-73" transform="translate(167.96875 0)"/>
     </g>
    </g>
   </g>
   <g id="text_13">
    <g clip-path="url(#p12d45ceeb6)">
     <!-- Instructions -->
     <g transform="translate(49.437505 201.082159) scale(0.12 -0.12)">
      <defs>
       <path id="DejaVuSans-49" d="M 628 4666 
L 1259 4666 
L 1259 0 
L 628 0 
L 628 4666 
z
" transform="scale(0.015625)"/>
      </defs>
      <use xlink:href="#DejaVuSans-49"/>
      <use xlink:href="#DejaVuSans-6e" transform="translate(29.492188 0)"/>
      <use xlink:href="#DejaVuSans-73" transform="translate(92.871094 0)"/>
      <use xlink:href="#DejaVuSans-74" transform="translate(144.970703 0)"/>
      <use xlink:href="#DejaVuSans-72" transform="translate(184.179688 0)"/>
      <use xlink:href="#DejaVuSans-75" transform="translate(225.292969 0)"/>
      <use xlink:href="#DejaVuSans-63" transform="translate(288.671875 0)"/>
      <use xlink:href="#DejaVuSans-74" transform="translate(343.652344 0)"/>
      <use xlink:href="#DejaVuSans-69" transform="translate(382.861328 0)"/>
      <use xlink:href="#DejaVuSans-6f" transform="translate(410.644531 0)"/>
      <use xlink:href="#DejaVuSans-6e" transform="translate(471.826172 0)"/>
      <use xlink:href="#DejaVuSans-73" transform="translate(535.205078 0)"/>
     </g>
    </g>
   </g>
   <g id="text_14">
    <g clip-path="url(#p12d45ceeb6)">
     <!-- Memory -->
     <g transform="translate(60.272193 171.627614) scale(0.12 -0.12)">
      <use xlink:href="#DejaVuSans-4d"/>
      <use xlink:href="#DejaVuSans-65" transform="translate(86.279297 0)"/>
      <use xlink:href="#DejaVuSans-6d" transform="translate(147.802734 0)"/>
      <use xlink:href="#DejaVuSans-6f" transform="translate(245.214844 0)"/>
      <use xlink:href="#DejaVuSans-72" transform="translate(306.396484 0)"/>
      <use xlink:href="#DejaVuSans-79" transform="translate(347.509766 0)"/>
     </g>
    </g>
   </g>
   <g id="text_15">
    <g clip-path="url(#p12d45ceeb6)">
     <!-- Observation -->
     <g transform="translate(48.137193 318.900341) scale(0.12 -0.12)">
      <defs>
       <path id="DejaVuSans-4f" d="M 2522 4238 
Q 1834 4238 1429 3725 
Q 1025 3213 1025 2328 
Q 1025 1447 1429 934 
Q 1834 422 2522 422 
Q 3209 422 3611 934 
Q 4013 1447 4013 2328 
Q 4013 3213 3611 3725 
Q 3209 4238 2522 4238 
z
M 2522 4750 
Q 3503 4750 4090 4092 
Q 4678 3434 4678 2328 
Q 4678 1225 4090 567 
Q 3503 -91 2522 -91 
Q 1538 -91 948 565 
Q 359 1222 359 2328 
Q 359 3434 948 4092 
Q 1538 4750 2522 4750 
z
" transform="scale(0.015625)"/>
      </defs>
      <use xlink:href="#DejaVuSans-4f"/>
      <use xlink:href="#DejaVuSans-62" transform="translate(78.710938 0)"/>
      <use xlink:href="#DejaVuSans-73" transform="translate(142.1875 0)"/>
      <use xlink:href="#DejaVuSans-65" transform="translate(194.287109 0)"/>
      <use xlink:href="#DejaVuSans-72" transform="translate(255.810547 0)"/>
      <use xlink:href="#DejaVuSans-76" transform="translate(296.923828 0)"/>
      <use xlink:href="#DejaVuSans-61" transform="translate(356.103516 0)"/>
      <use xlink:href="#DejaVuSans-74" transform="translate(417.382812 0)"/>
      <use xlink:href="#DejaVuSans-69" transform="translate(456.591797 0)"/>
      <use xlink:href="#DejaVuSans-6f" transform="translate(484.375 0)"/>
      <use xlink:href="#DejaVuSans-6e" transform="translate(545.556641 0)"/>
     </g>
    </g>
   </g>
   <g id="text_16">
    <g clip-path="url(#p12d45ceeb6)">
     <!-- All Similar Memories -->
     <g transform="translate(23.289693 230.536705) scale(0.12 -0.12)">
      <use xlink:href="#DejaVuSans-41"/>
      <use xlink:href="#DejaVuSans-6c" transform="translate(68.408203 0)"/>
      <use xlink:href="#DejaVuSans-6c" transform="translate(96.191406 0)"/>
      <use xlink:href="#DejaVuSans-20" transform="translate(123.974609 0)"/>
      <use xlink:href="#DejaVuSans-53" transform="translate(155.761719 0)"/>
      <use xlink:href="#DejaVuSans-69" transform="translate(219.238281 0)"/>
      <use xlink:href="#DejaVuSans-6d" transform="translate(247.021484 0)"/>
      <use xlink:href="#DejaVuSans-69" transform="translate(344.433594 0)"/>
      <use xlink:href="#DejaVuSans-6c" transform="translate(372.216797 0)"/>
      <use xlink:href="#DejaVuSans-61" transform="translate(400 0)"/>
      <use xlink:href="#DejaVuSans-72" transform="translate(461.279297 0)"/>
      <use xlink:href="#DejaVuSans-20" transform="translate(502.392578 0)"/>
      <use xlink:href="#DejaVuSans-4d" transform="translate(534.179688 0)"/>
      <use xlink:href="#DejaVuSans-65" transform="translate(620.458984 0)"/>
      <use xlink:href="#DejaVuSans-6d" transform="translate(681.982422 0)"/>
      <use xlink:href="#DejaVuSans-6f" transform="translate(779.394531 0)"/>
      <use xlink:href="#DejaVuSans-72" transform="translate(840.576172 0)"/>
      <use xlink:href="#DejaVuSans-69" transform="translate(881.689453 0)"/>
      <use xlink:href="#DejaVuSans-65" transform="translate(909.472656 0)"/>
      <use xlink:href="#DejaVuSans-73" transform="translate(970.996094 0)"/>
     </g>
    </g>
   </g>
   <g id="text_17">
    <g clip-path="url(#p12d45ceeb6)">
     <!-- Concat Act Component -->
     <g transform="translate(15.383755 377.809432) scale(0.12 -0.12)">
      <use xlink:href="#DejaVuSans-43"/>
      <use xlink:href="#DejaVuSans-6f" transform="translate(69.824219 0)"/>
      <use xlink:href="#DejaVuSans-6e" transform="translate(131.005859 0)"/>
      <use xlink:href="#DejaVuSans-63" transform="translate(194.384766 0)"/>
      <use xlink:href="#DejaVuSans-61" transform="translate(249.365234 0)"/>
      <use xlink:href="#DejaVuSans-74" transform="translate(310.644531 0)"/>
      <use xlink:href="#DejaVuSans-20" transform="translate(349.853516 0)"/>
      <use xlink:href="#DejaVuSans-41" transform="translate(381.640625 0)"/>
      <use xlink:href="#DejaVuSans-63" transform="translate(448.298828 0)"/>
      <use xlink:href="#DejaVuSans-74" transform="translate(503.279297 0)"/>
      <use xlink:href="#DejaVuSans-20" transform="translate(542.488281 0)"/>
      <use xlink:href="#DejaVuSans-43" transform="translate(574.275391 0)"/>
      <use xlink:href="#DejaVuSans-6f" transform="translate(644.099609 0)"/>
      <use xlink:href="#DejaVuSans-6d" transform="translate(705.28125 0)"/>
      <use xlink:href="#DejaVuSans-70" transform="translate(802.693359 0)"/>
      <use xlink:href="#DejaVuSans-6f" transform="translate(866.169922 0)"/>
      <use xlink:href="#DejaVuSans-6e" transform="translate(927.351562 0)"/>
      <use xlink:href="#DejaVuSans-65" transform="translate(990.730469 0)"/>
      <use xlink:href="#DejaVuSans-6e" transform="translate(1052.253906 0)"/>
      <use xlink:href="#DejaVuSans-74" transform="translate(1115.632812 0)"/>
     </g>
    </g>
   </g>
   <g id="text_18">
    <g clip-path="url(#p12d45ceeb6)">
     <!-- Constant -->
     <g transform="translate(57.701568 289.445795) scale(0.12 -0.12)">
      <use xlink:href="#DejaVuSans-43"/>
      <use xlink:href="#DejaVuSans-6f" transform="translate(69.824219 0)"/>
      <use xlink:href="#DejaVuSans-6e" transform="translate(131.005859 0)"/>
      <use xlink:href="#DejaVuSans-73" transform="translate(194.384766 0)"/>
      <use xlink:href="#DejaVuSans-74" transform="translate(246.484375 0)"/>
      <use xlink:href="#DejaVuSans-61" transform="translate(285.693359 0)"/>
      <use xlink:href="#DejaVuSans-6e" transform="translate(346.972656 0)"/>
      <use xlink:href="#DejaVuSans-74" transform="translate(410.351562 0)"/>
     </g>
    </g>
   </g>
   <g id="text_19">
    <g clip-path="url(#p12d45ceeb6)">
     <!-- Plan -->
     <g transform="translate(71.910318 407.263977) scale(0.12 -0.12)">
      <use xlink:href="#DejaVuSans-50"/>
      <use xlink:href="#DejaVuSans-6c" transform="translate(60.302734 0)"/>
      <use xlink:href="#DejaVuSans-61" transform="translate(88.085938 0)"/>
      <use xlink:href="#DejaVuSans-6e" transform="translate(149.365234 0)"/>
     </g>
    </g>
   </g>
   <g id="text_20">
    <g clip-path="url(#p12d45ceeb6)">
     <!-- Question of Recent Memories -->
     <g transform="translate(-3.737495 112.718523) scale(0.12 -0.12)">
      <defs>
       <path id="DejaVuSans-51" d="M 2522 4238 
Q 1834 4238 1429 3725 
Q 1025 3213 1025 2328 
Q 1025 1447 1429 934 
Q 1834 422 2522 422 
Q 3209 422 3611 934 
Q 4013 1447 4013 2328 
Q 4013 3213 3611 3725 
Q 3209 4238 2522 4238 
z
M 3406 84 
L 4238 -825 
L 3475 -825 
L 2784 -78 
Q 2681 -84 2626 -87 
Q 2572 -91 2522 -91 
Q 1538 -91 948 567 
Q 359 1225 359 2328 
Q 359 3434 948 4092 
Q 1538 4750 2522 4750 
Q 3503 4750 4090 4092 
Q 4678 3434 4678 2328 
Q 4678 1516 4351 937 
Q 4025 359 3406 84 
z
" transform="scale(0.015625)"/>
       <path id="DejaVuSans-52" d="M 2841 2188 
Q 3044 2119 3236 1894 
Q 3428 1669 3622 1275 
L 4263 0 
L 3584 0 
L 2988 1197 
Q 2756 1666 2539 1819 
Q 2322 1972 1947 1972 
L 1259 1972 
L 1259 0 
L 628 0 
L 628 4666 
L 2053 4666 
Q 2853 4666 3247 4331 
Q 3641 3997 3641 3322 
Q 3641 2881 3436 2590 
Q 3231 2300 2841 2188 
z
M 1259 4147 
L 1259 2491 
L 2053 2491 
Q 2509 2491 2742 2702 
Q 2975 2913 2975 3322 
Q 2975 3731 2742 3939 
Q 2509 4147 2053 4147 
L 1259 4147 
z
" transform="scale(0.015625)"/>
      </defs>
      <use xlink:href="#DejaVuSans-51"/>
      <use xlink:href="#DejaVuSans-75" transform="translate(78.710938 0)"/>
      <use xlink:href="#DejaVuSans-65" transform="translate(142.089844 0)"/>
      <use xlink:href="#DejaVuSans-73" transform="translate(203.613281 0)"/>
      <use xlink:href="#DejaVuSans-74" transform="translate(255.712891 0)"/>
      <use xlink:href="#DejaVuSans-69" transform="translate(294.921875 0)"/>
      <use xlink:href="#DejaVuSans-6f" transform="translate(322.705078 0)"/>
      <use xlink:href="#DejaVuSans-6e" transform="translate(383.886719 0)"/>
      <use xlink:href="#DejaVuSans-20" transform="translate(447.265625 0)"/>
      <use xlink:href="#DejaVuSans-6f" transform="translate(479.052734 0)"/>
      <use xlink:href="#DejaVuSans-66" transform="translate(540.234375 0)"/>
      <use xlink:href="#DejaVuSans-20" transform="translate(575.439453 0)"/>
      <use xlink:href="#DejaVuSans-52" transform="translate(607.226562 0)"/>
      <use xlink:href="#DejaVuSans-65" transform="translate(672.208984 0)"/>
      <use xlink:href="#DejaVuSans-63" transform="translate(733.732422 0)"/>
      <use xlink:href="#DejaVuSans-65" transform="translate(788.712891 0)"/>
      <use xlink:href="#DejaVuSans-6e" transform="translate(850.236328 0)"/>
      <use xlink:href="#DejaVuSans-74" transform="translate(913.615234 0)"/>
      <use xlink:href="#DejaVuSans-20" transform="translate(952.824219 0)"/>
      <use xlink:href="#DejaVuSans-4d" transform="translate(984.611328 0)"/>
      <use xlink:href="#DejaVuSans-65" transform="translate(1070.890625 0)"/>
      <use xlink:href="#DejaVuSans-6d" transform="translate(1132.414062 0)"/>
      <use xlink:href="#DejaVuSans-6f" transform="translate(1229.826172 0)"/>
      <use xlink:href="#DejaVuSans-72" transform="translate(1291.007812 0)"/>
      <use xlink:href="#DejaVuSans-69" transform="translate(1332.121094 0)"/>
      <use xlink:href="#DejaVuSans-65" transform="translate(1359.904297 0)"/>
      <use xlink:href="#DejaVuSans-73" transform="translate(1421.427734 0)"/>
     </g>
    </g>
   </g>
  </g>
 </g>
 <defs>
  <clipPath id="p12d45ceeb6">
   <rect x="7.2" y="7.2" width="892.8" height="498.96"/>
  </clipPath>
 </defs>
</svg>
